<svg xmlns="http://www.w3.org/2000/svg" viewBox="0 0 1600 1100" role="img" aria-labelledby="title desc">
  <title id="title">Lisbon Sunset</title>
  <desc id="desc">Stylized Lisbon skyline at sunset with tiled rooftops and a passing tram.</desc>
  <defs>
    <linearGradient id="sky" x1="0" y1="0" x2="0" y2="1">
      <stop offset="0%" stop-color="#102b57"/>
      <stop offset="55%" stop-color="#ff9c73"/>
      <stop offset="100%" stop-color="#ffe1b7"/>
    </linearGradient>
  </defs>
  <rect width="1600" height="1100" fill="url(#sky)"/>
  <circle cx="1180" cy="250" r="110" fill="#ffd58a" opacity="0.95"/>
  <rect y="640" width="1600" height="460" fill="#1f2748"/>
  <path d="M0 690 L150 560 L250 610 L380 470 L520 620 L640 520 L800 655 L980 470 L1120 615 L1260 520 L1420 650 L1600 560 L1600 1100 L0 1100 Z" fill="#24305a"/>
  <path d="M0 760 L180 660 L300 710 L440 590 L620 760 L760 640 L920 770 L1120 650 L1300 770 L1500 690 L1600 730 L1600 1100 L0 1100 Z" fill="#32416f"/>
  <g fill="#f7efe4">
    <rect x="230" y="620" width="170" height="300" rx="12"/>
    <rect x="430" y="560" width="190" height="360" rx="12"/>
    <rect x="670" y="600" width="230" height="320" rx="12"/>
    <rect x="970" y="550" width="150" height="370" rx="12"/>
    <rect x="1170" y="600" width="220" height="320" rx="12"/>
  </g>
  <g fill="#d96b5d">
    <path d="M215 620 L315 550 L415 620 Z"/>
    <path d="M420 560 L525 490 L630 560 Z"/>
    <path d="M655 600 L785 520 L915 600 Z"/>
    <path d="M955 550 L1045 490 L1135 550 Z"/>
    <path d="M1150 600 L1280 520 L1410 600 Z"/>
  </g>
  <g fill="#6b85b7" opacity="0.8">
    <rect x="255" y="680" width="34" height="42"/>
    <rect x="305" y="680" width="34" height="42"/>
    <rect x="475" y="640" width="38" height="46"/>
    <rect x="530" y="640" width="38" height="46"/>
    <rect x="735" y="670" width="44" height="48"/>
    <rect x="800" y="670" width="44" height="48"/>
    <rect x="1005" y="640" width="30" height="44"/>
    <rect x="1054" y="640" width="30" height="44"/>
    <rect x="1230" y="675" width="44" height="48"/>
    <rect x="1295" y="675" width="44" height="48"/>
  </g>
  <path d="M140 905 C450 850, 900 840, 1460 905 L1600 1020 L0 1020 Z" fill="#101a35"/>
  <path d="M380 880 h360 a18 18 0 0 1 18 18 v68 h-396 z" fill="#ffd06b"/>
  <rect x="430" y="902" width="200" height="42" rx="10" fill="#20325e"/>
  <circle cx="470" cy="944" r="18" fill="#182441"/>
  <circle cx="645" cy="944" r="18" fill="#182441"/>
  <text x="120" y="1040" fill="#f7f2ec" font-size="54" font-family="Georgia, serif" letter-spacing="4">LISBON</text>
</svg>
