<svg xmlns="http://www.w3.org/2000/svg" viewBox="0 0 1600 1100" role="img" aria-labelledby="title desc">
  <title id="title">Venice Dusk</title>
  <desc id="desc">Stylized Venice canal at dusk with warm windows and long reflections.</desc>
  <defs>
    <linearGradient id="sky" x1="0" y1="0" x2="0" y2="1">
      <stop offset="0%" stop-color="#15254d"/>
      <stop offset="46%" stop-color="#8a6288"/>
      <stop offset="100%" stop-color="#f3c597"/>
    </linearGradient>
  </defs>
  <rect width="1600" height="1100" fill="url(#sky)"/>
  <circle cx="1200" cy="225" r="90" fill="#ffe3af" opacity="0.94"/>
  <rect y="500" width="1600" height="600" fill="#2c456b"/>
  <g fill="#f0d1aa">
    <rect x="170" y="420" width="180" height="330"/>
    <rect x="390" y="360" width="220" height="390"/>
    <rect x="690" y="400" width="190" height="350"/>
    <rect x="1110" y="350" width="210" height="400"/>
    <rect x="1360" y="410" width="140" height="340"/>
  </g>
  <g fill="#d26b5a">
    <rect x="170" y="398" width="180" height="34"/>
    <rect x="390" y="336" width="220" height="34"/>
    <rect x="690" y="376" width="190" height="34"/>
    <rect x="1110" y="326" width="210" height="34"/>
    <rect x="1360" y="386" width="140" height="34"/>
  </g>
  <g fill="#ffe5b0">
    <rect x="215" y="500" width="34" height="54"/>
    <rect x="270" y="500" width="34" height="54"/>
    <rect x="450" y="468" width="38" height="58"/>
    <rect x="515" y="468" width="38" height="58"/>
    <rect x="750" y="520" width="36" height="58"/>
    <rect x="1170" y="446" width="40" height="62"/>
    <rect x="1240" y="446" width="40" height="62"/>
    <rect x="1404" y="510" width="28" height="52"/>
  </g>
  <path d="M0 740 C260 690, 460 790, 650 752 C850 710, 1020 652, 1230 694 C1370 724, 1490 722, 1600 710 L1600 1100 L0 1100 Z" fill="#355d7f"/>
  <path d="M0 852 C210 824, 430 884, 640 858 C860 830, 1040 776, 1260 808 C1390 826, 1500 834, 1600 826 L1600 1100 L0 1100 Z" fill="#6a90aa"/>
  <path d="M725 840 C800 760, 900 760, 975 840 C895 874, 805 874, 725 840 Z" fill="#1d2d46"/>
  <path d="M810 825 L848 728 L886 825 Z" fill="#0f182a"/>
  <text x="120" y="1040" fill="#f4f0ed" font-size="54" font-family="Georgia, serif" letter-spacing="4">VENICE</text>
</svg>
